<svg height="512pt" viewBox="0 0 512 512.04277" width="512pt" xmlns="http://www.w3.org/2000/svg"><path d="m503.488281 76.84375v307.199219c0 18.851562-15.28125 34.132812-34.132812 34.132812h-409.601563v-375.464843h409.601563c18.851562 0 34.132812 15.28125 34.132812 34.132812zm0 0" fill="#283593"/><path d="m477.886719 76.84375v307.199219c0 18.851562-15.28125 34.132812-34.132813 34.132812h-384v-375.464843h384c18.851563 0 34.132813 15.28125 34.132813 34.132812zm0 0" fill="#3f51b5"/><path d="m59.753906 25.644531v477.863281h-51.199218v-494.933593h34.132812c9.414062.03125 17.039062 7.65625 17.066406 17.070312zm0 0" fill="#e91e63"/><path d="m179.222656 418.175781h153.597656v51.199219h-153.597656zm0 0" fill="#37474f"/><path d="m384.019531 486.441406v17.066406h-256v-17.066406c.03125-9.414062 7.65625-17.039062 17.070313-17.066406h221.863281c9.414063.027344 17.039063 7.652344 17.066406 17.066406zm0 0" fill="#37474f"/><path d="m358.421875 486.441406v17.066406h-230.402344v-17.066406c.03125-9.414062 7.65625-17.039062 17.070313-17.066406h196.265625c9.414062.027344 17.039062 7.652344 17.066406 17.066406zm0 0" fill="#607d8b"/><path d="m119.488281 85.375h93.867188c9.425781 0 17.066406 7.640625 17.066406 17.066406v68.269532c0 9.425781-7.640625 17.066406-17.066406 17.066406h-93.867188c-9.425781 0-17.066406-7.640625-17.066406-17.066406v-68.269532c0-9.425781 7.640625-17.066406 17.066406-17.066406zm0 0" fill="#00bcd4"/><path d="m281.621094 85.375h93.867187v102.402344h-93.867187c-9.425782 0-17.066406-7.640625-17.066406-17.066406v-68.269532c0-9.425781 7.640624-17.066406 17.066406-17.066406zm0 0" fill="#00bcd4"/><path d="m503.488281 349.910156v34.132813c0 18.851562-15.28125 34.132812-34.132812 34.132812h-409.601563v-68.265625zm0 0" fill="#37474f"/><path d="m477.886719 349.910156v34.132813c0 18.851562-15.28125 34.132812-34.132813 34.132812h-384v-68.265625zm0 0" fill="#607d8b"/><path d="m443.753906 42.453125v34.390625h-68.265625v-34.390625c0-18.851563 15.28125-34.132813 34.132813-34.132813 18.851562 0 34.132812 15.28125 34.132812 34.132813zm0 0" fill="#e91e63"/><path d="m375.488281 76.84375h68.265625v34.132812h-68.265625zm0 0" fill="#cfd8dc"/><path d="m443.753906 110.976562v202.667969l-.511718 1.277344c-7.574219-10.941406-20.339844-17.101563-33.621094-16.210937-13.277344-.890626-26.046875 5.269531-33.621094 16.210937l-.511719-1.277344v-202.667969zm0 0" fill="#f44335"/><path d="m443.242188 314.921875-25.683594 63.832031c-1.328125 3.210938-4.460938 5.308594-7.9375 5.308594-3.476563 0-6.609375-2.097656-7.9375-5.308594l-25.683594-63.832031c7.574219-10.941406 20.34375-17.101563 33.621094-16.210937 13.28125-.890626 26.046875 5.269531 33.621094 16.210937zm0 0" fill="#cfd8dc"/><path d="m469.355469 34.175781h-17.921875c-4.035156-19.886719-21.519532-34.175781-41.8125-34.175781-20.289063 0-37.773438 14.289062-41.8125 34.175781h-299.519532v-8.53125c0-14.140625-11.460937-25.6015622-25.601562-25.6015622h-34.132812c-4.710938 0-8.5351568 3.8203122-8.5351568 8.5312502v494.933593c0 4.714844 3.8242188 8.535157 8.5351568 8.535157h494.933593c4.710938 0 8.53125-3.820313 8.53125-8.535157 0-4.710937-3.820312-8.53125-8.53125-8.53125h-110.933593v-8.535156c0-14.136718-11.460938-25.597656-25.601563-25.597656h-25.597656v-34.132812h128c23.550781-.03125 42.636719-19.117188 42.664062-42.667969v-307.199219c-.027343-23.554688-19.113281-42.640625-42.664062-42.667969zm25.597656 42.667969v264.53125h-53.167969l9.886719-24.539062c.410156-1.015626.617187-2.101563.617187-3.191407v-262.402343h17.066407c14.136719 0 25.597656 11.460937 25.597656 25.601562zm-426.664063-25.601562h298.664063v25.601562h-85.332031c-14.136719 0-25.601563 11.460938-25.601563 25.597656v68.269532c0 14.136718 11.464844 25.597656 25.601563 25.597656h85.332031v17.066406h-51.199219c-4.710937 0-8.53125 3.820312-8.53125 8.535156 0 4.710938 3.820313 8.53125 8.53125 8.53125h51.199219v17.066406h-102.398437c-4.710938 0-8.535157 3.820313-8.535157 8.535157 0 4.710937 3.824219 8.53125 8.535157 8.53125h102.398437v49.070312c0 1.089844.207031 2.175781.617187 3.191407l9.890626 24.539062h-309.171876zm341.332032 85.332031c-4.710938 0-8.53125 3.824219-8.53125 8.535156v145.691406c-5.988282.796875-11.777344 2.699219-17.070313 5.613281v-176.90625h51.203125v176.90625c-5.292968-2.914062-11.082031-4.816406-17.066406-5.613281v-145.691406c0-4.710937-3.820312-8.535156-8.535156-8.535156zm-42.667969 42.667969h-85.332031c-4.710938 0-8.53125-3.820313-8.53125-8.53125v-68.269532c0-4.710937 3.820312-8.53125 8.53125-8.53125h85.332031zm68.269531-76.800782h-51.203125v-17.066406h51.203125zm-49.496094 213.839844c13.632813-12.050781 34.105469-12.050781 47.738282 0l-23.84375 59.226562zm-1.707031-273.8125c0-14.136719 11.464844-25.597656 25.601563-25.597656 14.140625 0 25.601562 11.460937 25.601562 25.597656v25.839844h-51.203125zm-366.929687 452.507812v-477.867187h25.597656c4.714844 0 8.535156 3.820313 8.535156 8.535156v8.53125h-8.535156c-4.710938 0-8.53125 3.820313-8.53125 8.535157 0 4.710937 3.820312 8.53125 8.53125 8.53125h8.535156v17.066406h-8.535156c-4.710938 0-8.53125 3.820312-8.53125 8.535156 0 4.710938 3.820312 8.53125 8.53125 8.53125h8.535156v17.066406h-8.535156c-4.710938 0-8.53125 3.820313-8.53125 8.535156 0 4.710938 3.820312 8.53125 8.53125 8.53125h8.535156v17.066407h-8.535156c-4.710938 0-8.53125 3.824219-8.53125 8.535156 0 4.714844 3.820312 8.535156 8.53125 8.535156h8.535156v17.066407h-8.535156c-4.710938 0-8.53125 3.820312-8.53125 8.53125 0 4.714843 3.820312 8.535156 8.53125 8.535156h8.535156v17.066406h-8.535156c-4.710938 0-8.53125 3.820312-8.53125 8.53125 0 4.714844 3.820312 8.535156 8.53125 8.535156h8.535156v17.066406h-8.535156c-4.710938 0-8.53125 3.820313-8.53125 8.53125 0 4.714844 3.820312 8.535157 8.53125 8.535157h8.535156v17.066406h-8.535156c-4.710938 0-8.53125 3.820313-8.53125 8.535156 0 4.710938 3.820312 8.53125 8.53125 8.53125h8.535156v17.066407h-8.535156c-4.710938 0-8.53125 3.820312-8.53125 8.535156 0 4.710937 3.820312 8.53125 8.53125 8.53125h8.535156v17.066406h-8.535156c-4.710938 0-8.53125 3.820312-8.53125 8.535156 0 4.710938 3.820312 8.53125 8.53125 8.53125h8.535156v17.066406h-8.535156c-4.710938 0-8.53125 3.820313-8.53125 8.535157 0 4.710937 3.820312 8.53125 8.53125 8.53125h8.535156v17.070312h-8.535156c-4.710938 0-8.53125 3.820313-8.53125 8.53125 0 4.714844 3.820312 8.535157 8.53125 8.535157h8.535156v17.066406h-8.535156c-4.710938 0-8.53125 3.820312-8.53125 8.53125 0 4.714844 3.820312 8.535156 8.53125 8.535156h8.535156v34.132812zm128-34.132812c-14.140625 0-25.601563 11.460938-25.601563 25.597656v8.535156h-51.199219v-68.265624h102.398438v34.132812zm230.398437 25.597656v8.535156h-238.933593v-8.535156c0-4.710937 3.820312-8.53125 8.535156-8.53125h221.863281c4.714844 0 8.535156 3.820313 8.535156 8.53125zm-51.199219-25.597656h-136.535156v-34.132812h136.535156zm145.066407-51.199219h-401.066407v-51.203125h316.039063l9.457031 23.46875c2.59375 6.46875 8.867188 10.707032 15.835938 10.707032 6.972656 0 13.242187-4.238282 15.839844-10.707032l9.453124-23.46875h60.039063v25.601563c0 14.136719-11.460937 25.601562-25.597656 25.601562zm0 0"/><path d="m213.355469 76.84375h-93.867188c-14.140625 0-25.601562 11.460938-25.601562 25.597656v68.269532c0 14.136718 11.460937 25.597656 25.601562 25.597656h93.867188c14.136719 0 25.597656-11.460938 25.597656-25.597656v-68.269532c0-14.136718-11.460937-25.597656-25.597656-25.597656zm8.53125 93.867188c0 4.710937-3.820313 8.53125-8.53125 8.53125h-93.867188c-4.714843 0-8.535156-3.820313-8.535156-8.53125v-68.269532c0-4.710937 3.820313-8.53125 8.535156-8.53125h93.867188c4.710937 0 8.53125 3.820313 8.53125 8.53125zm0 0"/><path d="m102.421875 230.441406h17.066406c4.710938 0 8.53125-3.820312 8.53125-8.53125 0-4.714844-3.820312-8.535156-8.53125-8.535156h-17.066406c-4.714844 0-8.535156 3.820312-8.535156 8.535156 0 4.710938 3.820312 8.53125 8.535156 8.53125zm0 0"/><path d="m230.421875 213.375h-76.800781c-4.710938 0-8.53125 3.820312-8.53125 8.535156 0 4.710938 3.820312 8.53125 8.53125 8.53125h76.800781c4.710937 0 8.53125-3.820312 8.53125-8.53125 0-4.714844-3.820313-8.535156-8.53125-8.535156zm0 0"/><path d="m230.421875 247.507812h-128c-4.714844 0-8.535156 3.820313-8.535156 8.535157 0 4.710937 3.820312 8.53125 8.535156 8.53125h128c4.710937 0 8.53125-3.820313 8.53125-8.53125 0-4.714844-3.820313-8.535157-8.53125-8.535157zm0 0"/><path d="m264.554688 230.441406h17.066406c4.714844 0 8.535156-3.820312 8.535156-8.53125 0-4.714844-3.820312-8.535156-8.535156-8.535156h-17.066406c-4.710938 0-8.535157 3.820312-8.535157 8.535156 0 4.710938 3.824219 8.53125 8.535157 8.53125zm0 0"/></svg>